<?xml version="1.0" encoding="UTF-8"?>
<svg xmlns="http://www.w3.org/2000/svg" xmlns:xlink="http://www.w3.org/1999/xlink" width="607" height="162" viewBox="0 0 607 162">
  <defs>
    <clipPath id="clip-path">
      <rect id="Rectangle_184355" data-name="Rectangle 184355" width="607" height="162" transform="translate(-10432 -1411)" fill="#fff"></rect>
    </clipPath>
    <linearGradient id="linear-gradient" x1="0.142" y1="0.169" x2="1.088" y2="0.856" gradientUnits="objectBoundingBox">
      <stop offset="0" stop-color="#c78c40"></stop>
      <stop offset="1" stop-color="#ebc978"></stop>
    </linearGradient>
  </defs>
  <g id="partyonelogos" transform="translate(10432 1411)" clip-path="url(#clip-path)">
    <g id="Layer_1" data-name="Layer 1" transform="translate(-10432 -1410.996)">
      <g id="Group_341758" data-name="Group 341758">
        <path id="Path_461944" data-name="Path 461944" d="M78.89,3.15h-.01A50.759,50.759,0,0,0,60.33.02,3.836,3.836,0,0,0,59.74,0,59.734,59.734,0,0,0,0,59.72a55.617,55.617,0,0,0,.84,9.81v.1A63.052,63.052,0,0,0,12.1,97.72q21.945,30.855,43.97,61.69c2.46,3.44,5.13,3.48,7.56.08q21.7-30.54,43.46-61.01a63.594,63.594,0,0,0,10.99-25.94c.02-.11.05-.25.08-.36A59.654,59.654,0,0,0,78.89,3.15ZM32.25,88c.38-.13.59-.22.59-.22A16.264,16.264,0,0,0,29.9,81.6a21.908,21.908,0,0,1-4.04-5.94l-.03-.05c-1.08-5.32,2.18-6.72,2.18-6.72a46.327,46.327,0,0,0,10.37-6.35,24.641,24.641,0,0,1,2.27,2.3c-.08.19-.13.35-.19.51,0,0,3.62,3.24,3.75,4.38h.01a7.59,7.59,0,0,0,.16,2.07,27.647,27.647,0,0,1-.06,10.61l-.02.06a13.715,13.715,0,0,1-3.27,5.99c.13.08.26.15.4.22l.53.24c-.19.59-.35,1.19-.53,1.78l-.05.08-3.94,13.04a13.527,13.527,0,0,0-1.97-4.56,13.412,13.412,0,0,1-2.41-5.97A18.244,18.244,0,0,0,32.25,88Zm.73,15.52a50.994,50.994,0,0,1-9.77-7.59,47.991,47.991,0,0,0,.59-4.91v-.65c.65-.14,1.3-.29,1.94-.46a18.935,18.935,0,0,0,4.54,8.72,8.126,8.126,0,0,1,1.32,2.06A9.417,9.417,0,0,0,32.98,103.52ZM48.8,97.29s2.21,6.72,4.64,13.25a49.931,49.931,0,0,1-12.2-2.99C43.48,100.09,46.69,92,48.8,97.29ZM88.07,43.65a1.473,1.473,0,0,0-.28.08,2.423,2.423,0,0,0-1.12.86c-.44.56-.41.84-.82,1.08-.28.16-.35.05-.57.21a1.929,1.929,0,0,0-.59,1.56,4.2,4.2,0,0,0,.21,1.44c.21.96-.14,1.77-.79,3.25-.93,2.12-1.45,2.08-2.31,4.06-.53,1.23-.41,1.42-.95,2.73a16.173,16.173,0,0,1-2.03,3.57c-2.02-5.91-5.29-5.05-5.29-5.05-3.99-.02-4.75,9.02-4.75,9.02-1.51-.59-4.16-4.51-4.16-4.51.22-.41.47-.91.74-1.49.44-.94.76-1.69.93-2.12a35.909,35.909,0,0,0,2.06-6.37,3.491,3.491,0,0,0-.61-3.14c-.31-.45-.9-1.3-1.5-1.21a.576.576,0,0,0-.17.05.56.56,0,0,0-.33-.2.62.62,0,0,0-.33.03.981.981,0,0,0-.25.16.6.6,0,0,0-.42.02.548.548,0,0,0-.29.31.416.416,0,0,0-.36.07c-.31.27.16,1.25.38,1.7a6.936,6.936,0,0,0,.96,1.5,1,1,0,0,1,.35,1.24,19.365,19.365,0,0,1-3.07,5.67,9.937,9.937,0,0,0-2.6-3.46c-1.81-2.02-1.62-2.91-1.62-2.91.1-1.15-.46-1.44-.46-1.44a2.7,2.7,0,0,1-.92-.86,19.341,19.341,0,0,1-1.26-1.97c-.9-1.75-1.22-1.29-1.22-1.29-.35.53.71,1.56.71,1.56a4.2,4.2,0,0,0,.32.9,2.568,2.568,0,0,0-1.15.28c-1.27-.75-1.59-.4-1.59-.4a.247.247,0,0,0-.11.13.227.227,0,0,0-.01.16.556.556,0,0,0-.38-.02.282.282,0,0,0-.14.1.315.315,0,0,0-.01.27c.06.17.26.25.4.31,0,0,.16.07.83.46a2.982,2.982,0,0,1,.74.59c.05.32.57.7.57.7.73,1.65,1.49,1.7,1.49,1.7.76.19,1.05,1.3,1.05,1.3a19.631,19.631,0,0,0,3.92,7.13c.1.86-1.35,2.13-1.57,2.32h-.03a1.879,1.879,0,0,0-.24-.25c-.08.71-1.35,1.27-1.35,1.27-2.45.6-3.07,1.95-3.18,2.3a3.545,3.545,0,0,1,.2-1.15,6.507,6.507,0,0,1,.93-1.57,11.313,11.313,0,0,0,.84-1.21,5,5,0,0,0,.47-1.36,4.014,4.014,0,0,0-.23-2.3,3.945,3.945,0,0,0-5.89-1.6,4.125,4.125,0,0,0-1.53,2.88,5.9,5.9,0,0,0,.25,2.47,8.219,8.219,0,0,1,.68,2.29,4.746,4.746,0,0,1-.09,1.11,2.893,2.893,0,0,1-2.19-1.11,5.823,5.823,0,0,0-3.3-1.72s-1.51-.65-1.89-1.62a2.692,2.692,0,0,1-.32.27,6.232,6.232,0,0,0-1.76-1.89,7.058,7.058,0,0,1,2.58-.14,3.09,3.09,0,0,1,.91.2,2.4,2.4,0,0,0,.67.31.732.732,0,0,0,.66-.09.629.629,0,0,0,.13-.28,1.224,1.224,0,0,0-.25-.57c-1.27-1.62-4.81-1.15-4.81-1.15a4.258,4.258,0,0,0-1,.29,5.247,5.247,0,0,0-.92-1.75c-1.83-2.58-.78-3.86-.78-3.86a2.013,2.013,0,0,0,.35-1.68,1.377,1.377,0,0,1-.13-.75c.02-1.03-.58-.58-.58-.58-.24.27-.43.09-.43.09-1.51-1.87-1.72.16-1.72.16-.73-.03-.4.65-.4.65.1.24,0,.35,0,.35a.417.417,0,0,0-.13.15.732.732,0,0,0,.06.62,1.248,1.248,0,0,0-.02.21,1.051,1.051,0,0,0,.22.64,2.08,2.08,0,0,1,.62,1.56,11.312,11.312,0,0,0,.78,5.78c-1.67,1-3.12,1.97-3.12,1.97-6.84,3.54-8.72,2.91-8.72,2.91A5.023,5.023,0,0,0,27,61.3a4.34,4.34,0,0,0-2.93-4.27,2.691,2.691,0,0,0-2.01.13c-2.97,1.35-3.44,6.16-3.44,6.16a.093.093,0,0,0-.03-.06.857.857,0,0,1,.05.27,20.57,20.57,0,0,1-2.1-7.56,15.652,15.652,0,0,1,6.53-1.75,10.956,10.956,0,0,0,3.44,2.21c-.02,1.72.46,1.67.46,1.67.81-.57.38-2.62.38-2.62-.35-1.05-3.59-2.56-3.59-2.56-1.78-.89-8.8.48-8.8.48a19.645,19.645,0,0,0-1.3,7.27,28.76,28.76,0,0,0,.65,5.91c0,.02,0,.05.02.05a23.794,23.794,0,0,0,.6,2.35c.97,4.13,2.48,11.36,2.51,11.5a41.927,41.927,0,0,1-.52,7.99c-.59-.84-1.15-1.72-1.7-2.62a1.14,1.14,0,0,1-.1-.19c-.54-.86-1.03-1.75-1.51-2.67a1.706,1.706,0,0,0-.14-.27c-.4-.78-.8-1.6-1.14-2.4-.03-.09-.08-.17-.11-.25-.54-1.23-.97-2.32-1.29-3.21-.5-1.35-.81-2.4-1.08-3.26-.19-.59-.35-1.19-.52-1.81s-.29-1.22-.43-1.84c-.19-.83-.35-1.67-.49-2.53s-.26-1.72-.37-2.59c-.06-.59-.11-1.14-.17-1.75-.08-.79-.09-1.66-.12-2.42-.01-.36-.03-.73-.03-1.1A52.056,52.056,0,0,1,59.76,7.39h.03a52.05,52.05,0,0,1,52.05,52.04,43.878,43.878,0,0,1-.25,4.61c-1.09,10-5.67,18.24-6.47,17.98-.21-.07.02-1.5.21-4.38a40.209,40.209,0,0,1,.68-5.01c0-.02.02-.04.02-.06a.308.308,0,0,0,.03-.13,11.83,11.83,0,0,1,.58-1.95l.1-.28.27-.95a10.491,10.491,0,0,0,.02-3.83.585.585,0,0,1-.02-.13,6.353,6.353,0,0,0-2.84-3.65.809.809,0,0,0-.08-.59,1.643,1.643,0,0,1-.38-.81c0-.76-.49-.81-.76-.81a3.658,3.658,0,0,1,1.41-2.65c1.02-.67.67-2.51.67-2.51-1.19-5.1-5.83-2.07-5.83-2.07l-1.69-.29a.7.7,0,0,0-.8.45,1.675,1.675,0,0,0,.61,1.93,1.32,1.32,0,0,0,.74.13,1.2,1.2,0,0,0,.3-.09l-.02.03a13.085,13.085,0,0,0-.19,1.4,4.067,4.067,0,0,0-.06.73,4.28,4.28,0,0,0,.84,2.4.647.647,0,0,1,.11.33.878.878,0,0,1-.57.75h-.03c-.64.08-1.15-.59-1.38-1.02-.05-.14-.08-.25-.1-.29a.029.029,0,0,1-.03-.03,23.346,23.346,0,0,0-4.77-6.02,2.056,2.056,0,0,1-1.11-2.05,9.078,9.078,0,0,0-.35-3.4c-1.35-5.35-.13-6.51-.13-6.51a3.875,3.875,0,0,0,.84-2.78,2.892,2.892,0,0,0-.62-1.67,1.127,1.127,0,0,0-.68-.4.954.954,0,0,0-.59.11,1.77,1.77,0,0,0-.84.15,3.775,3.775,0,0,0-.7.49,1.143,1.143,0,0,0-.9,1.35v.02a1.064,1.064,0,0,0,.09.25c.12.65.24,1.31.35,1.97.2,1.18.38,2.35.55,3.49Zm10.7,49.64a40.464,40.464,0,0,1-3.13,3.29,21.167,21.167,0,0,1,1.59-6.88A22.306,22.306,0,0,1,98.77,93.29Zm-8.44-8.1c-1.32,3.24-1.59,11.82-1.59,16.95a51.159,51.159,0,0,1-15.02,6.88c.03-2.1.26-5.23.26-5.23a25.089,25.089,0,0,1,.89-4.11l.14-.48.57-2.05.94.19a87.647,87.647,0,0,1,2.79-18.36.114.114,0,0,0,.03-.08.193.193,0,0,0,.1-.03.428.428,0,0,0,.16-.05.732.732,0,0,1,.25-.08c.02,0,.02-.03.05-.03a2.834,2.834,0,0,0,.92-.79c1.94-2.6-2.12-7.32-2.14-7.33a.173.173,0,0,0-.04-.03h-.01c1.02-2.68,1.8-4.52,2.34-5.74a32.417,32.417,0,0,0,1.65-4,8.464,8.464,0,0,1,.45-1.25A12.676,12.676,0,0,1,83.92,58s.56-.94,1.01-1.85a31.072,31.072,0,0,0,1.66-4.39,3.592,3.592,0,0,1,1.08-1.67,5.351,5.351,0,0,0,.57,2.75v.03a.438.438,0,0,1,.06.16,19.635,19.635,0,0,0,.94,2.45c0,.03.03.06.03.08.08.17.16.27.21.41s.17.28.25.43a.076.076,0,0,1,.02.05v.03a14.4,14.4,0,0,1,.98,2.45c.08.19.16.35.24.52a11.714,11.714,0,0,0,3.59,4.54,38.126,38.126,0,0,1-1.21,8.95c-1.21,3.62-2.46,7.61-3.15,9.99-.38,1.23-.62,2.05-.62,2.15a4.848,4.848,0,0,0,.75.11ZM54.8,87.65c.54-3.92.98-11.91.98-11.91.19-2.67,3.44-6.3,5.42-8.28a.919.919,0,0,1,.22-.22l.24-.26c.62-.62,1.03-.97,1.03-.97l-.31-.53a12.372,12.372,0,0,0,.78-1.32s2.11,3.07,3.51,4.92l.08.08c.62.7,6.26,7.12,4.87,12.09v.03a4.4,4.4,0,0,1-1.15,2.1,5.056,5.056,0,0,1-.99.86s-4.57,2.84-3.19,11.45l1.15.46a18.42,18.42,0,0,1,1.65,8.05s-1.19,1.4.24,5.85a50.846,50.846,0,0,1-9.61.89h-.43a101.758,101.758,0,0,1-4.11-15.17,18.71,18.71,0,0,1-.38-8.12ZM7.33,59.33A52.421,52.421,0,0,1,59.75,6.91h0a52.415,52.415,0,1,0,0,104.83h0A52.412,52.412,0,0,1,7.33,59.33Z" fill="url(#linear-gradient)" style="isolation: isolate"></path>
        <g id="Group_341757" data-name="Group 341757">
          <path id="Path_461945" data-name="Path 461945" d="M182,74.63c0,11.55-9.25,18.53-24.49,18.53h-16.1v17.13h-6.34V56.03H157.5c15.24,0,24.49,6.98,24.49,18.6Zm-6.34,0c0-8.68-6.34-13.64-18.32-13.64H141.41V88.12h15.93C169.33,88.12,175.66,83.16,175.66,74.63Z" fill="#ebc978"></path>
          <path id="Path_461946" data-name="Path 461946" d="M228.13,95.81H194.79l-7.18,14.47h-6.58l27.36-54.17h6.24l27.36,54.17h-6.67l-7.18-14.47Zm-2.31-4.64-14.36-29.1L197.1,91.17Z" fill="#ebc978"></path>
          <path id="Path_461947" data-name="Path 461947" d="M291.98,110.28,278.27,92.83c-1.54.15-3.08.23-4.8.23H257.36v17.22h-6.34V55.98h22.45c15.25,0,24.51,6.98,24.51,18.62,0,8.53-4.97,14.51-13.71,17.07l14.66,18.62h-6.94Zm-.34-35.69c0-8.69-6.34-13.65-18.34-13.65H257.36V88.17H273.3C285.3,88.17,291.64,83.13,291.64,74.59Z" fill="#ebc978"></path>
          <path id="Path_461948" data-name="Path 461948" d="M326.06,60.98H305V56.02h48.47v4.96H332.41v49.3h-6.34V60.98Z" fill="#ebc978"></path>
          <path id="Path_461949" data-name="Path 461949" d="M390.45,91.5v18.78h-6.26V91.5L360.18,55.95h6.77l20.58,30.5,20.58-30.5h6.34L390.44,91.5Z" fill="#ebc978"></path>
          <path id="Path_461950" data-name="Path 461950" d="M412.27,107.6a2.782,2.782,0,0,1,5.56,0,2.782,2.782,0,0,1-5.56,0Z" fill="#ebc978"></path>
          <path id="Path_461951" data-name="Path 461951" d="M458.91,55.48c-17.67,0-31,11.87-31,27.62s13.33,27.62,31,27.62,31.08-11.87,31.08-27.62-13.36-27.62-31.08-27.62ZM485.45,83.1c0,13.44-11.41,23.57-26.54,23.57S432.45,96.54,432.45,83.1s11.37-23.57,26.46-23.57S485.45,69.66,485.45,83.1Z" fill="#ebc978"></path>
          <path id="Path_461952" data-name="Path 461952" d="M547.7,55.47v47.35L507.21,55.77l-.25-.3h-3.61v55.24h4.58V63.36l40.48,47.05.26.3h3.61V55.47Z" fill="#ebc978"></path>
          <path id="Path_461953" data-name="Path 461953" d="M570.21,106.63V84.71h32.1V80.63h-32.1V59.55h35.9V55.47H565.64v55.24H607.3v-4.08Z" fill="#ebc978"></path>
        </g>
      </g>
    </g>
  </g>
</svg>
